<?xml version="1.0" standalone="no"?>
<!DOCTYPE svg PUBLIC "-//W3C//DTD SVG 20010904//EN"
 "http://www.w3.org/TR/2001/REC-SVG-20010904/DTD/svg10.dtd">
<svg version="1.0" xmlns="http://www.w3.org/2000/svg"
 width="1179.000000pt" height="940.000000pt" viewBox="0 0 1179.000000 940.000000"
 preserveAspectRatio="xMidYMid meet">

<g transform="translate(0.000000,940.000000) scale(0.100000,-0.100000)"
fill="#c9148c" stroke="none">
<path d="M8100 7950 c-99 -14 -183 -40 -285 -90 -382 -185 -630 -584 -585
-942 23 -188 99 -334 253 -488 94 -95 194 -171 438 -337 271 -184 349 -246
458 -368 46 -51 141 -197 141 -216 0 -3 -65 -44 -145 -90 -236 -137 -366 -254
-453 -409 -101 -180 -95 -321 18 -377 52 -27 100 -29 184 -7 159 41 312 160
419 325 99 153 137 282 137 467 l0 112 46 28 c370 217 571 395 673 599 30 61
42 121 21 108 -6 -4 -24 -34 -42 -68 -81 -161 -219 -306 -423 -444 -75 -51
-270 -163 -283 -163 -5 0 -15 15 -22 33 -59 149 -215 331 -500 582 -472 415
-610 616 -610 885 0 308 284 680 580 760 105 28 263 1 363 -62 226 -144 289
-480 153 -820 -27 -68 -26 -108 5 -108 25 0 61 52 93 131 115 294 68 611 -119
800 -123 124 -323 186 -515 159z m438 -2647 c-6 -158 -32 -253 -94 -351 -96
-149 -313 -286 -425 -267 -70 12 -105 80 -88 170 24 128 131 263 329 412 96
72 255 173 273 173 6 0 8 -51 5 -137z"/>
<path d="M3985 7831 c-77 -25 -150 -100 -231 -237 -108 -183 -221 -469 -377
-954 -53 -162 -135 -416 -184 -565 l-88 -270 -3 135 c-3 130 13 332 57 760 29
276 35 423 22 510 -15 99 -54 176 -109 215 -40 28 -50 30 -125 30 -66 -1 -92
-5 -131 -24 -141 -69 -281 -276 -350 -515 -44 -149 -59 -260 -59 -421 -1 -160
10 -223 60 -366 l27 -76 -63 -104 c-79 -132 -167 -240 -234 -283 -107 -71
-168 -57 -280 64 -93 101 -177 236 -304 490 -57 113 -103 202 -103 198 0 -3
24 -92 54 -197 118 -413 138 -609 76 -731 -56 -111 -229 -119 -515 -25 -71 23
-161 57 -199 74 -38 17 -71 29 -73 27 -4 -4 182 -159 249 -208 66 -48 175
-157 213 -212 l37 -54 107 70 c186 124 452 239 686 296 96 24 252 51 315 54
39 3 45 6 42 23 -10 69 -1 243 17 339 12 60 22 111 24 113 2 2 12 -6 22 -17
10 -11 30 -20 45 -20 58 0 68 64 14 90 -50 24 -65 59 -54 127 11 67 9 75 -9
28 -7 -19 -16 -35 -20 -35 -10 0 -37 87 -51 164 -15 89 -12 300 6 407 52 303
186 557 329 625 63 30 130 32 145 5 19 -36 10 -155 -25 -351 -70 -399 -80
-491 -79 -775 0 -247 1 -265 26 -355 46 -171 87 -230 160 -230 18 0 43 8 55
18 55 43 131 243 373 972 186 561 245 720 331 891 53 107 126 211 159 229 88
47 99 -48 50 -450 -162 -1343 -155 -2046 24 -2219 97 -94 198 -36 361 209 76
114 238 423 326 623 37 83 37 83 58 -8 6 -27 20 -61 30 -75 26 -37 82 -64 114
-56 56 14 140 134 177 254 l17 54 12 -115 c18 -185 67 -307 123 -307 62 0 141
95 243 291 l62 120 12 -86 c21 -140 69 -208 137 -191 48 12 124 101 179 210
47 92 50 96 53 65 1 -19 -1 -193 -5 -388 l-8 -353 -36 -32 c-20 -17 -122 -79
-225 -137 -427 -239 -607 -376 -775 -585 -297 -371 -301 -899 -9 -1195 116
-118 213 -159 380 -159 128 0 217 21 326 74 405 200 589 774 583 1819 l-1 287
34 43 c56 68 106 153 184 307 81 163 204 451 204 481 0 39 -23 17 -53 -53 -97
-222 -291 -589 -350 -662 l-24 -30 -6 140 c-4 76 -7 281 -8 454 l-2 315 40 85
c104 223 121 417 38 432 -80 16 -155 -53 -204 -186 -36 -101 -56 -200 -71
-366 -18 -179 -92 -378 -176 -466 -80 -85 -90 -23 -47 277 14 97 15 121 4 147
-19 45 -77 78 -127 73 -19 -2 -34 -52 -43 -146 -7 -84 -13 -100 -76 -225 -93
-185 -168 -300 -196 -300 -27 0 -18 271 17 525 10 66 17 137 18 157 1 49 -30
89 -83 108 -50 18 -71 8 -83 -37 l-8 -31 -51 15 c-62 18 -124 11 -170 -20 -58
-39 -93 -97 -136 -228 -65 -198 -329 -732 -445 -901 -72 -105 -118 -148 -158
-148 -43 0 -53 28 -58 162 -5 146 8 334 63 908 69 707 75 790 82 1025 5 184 3
230 -10 282 -22 84 -56 149 -111 210 -65 72 -120 95 -181 74z m2259 -1051 c-1
-51 -9 -84 -38 -155 -21 -49 -42 -94 -47 -99 -13 -14 -12 137 2 209 15 82 34
117 62 113 20 -3 22 -8 21 -68z m-1099 -380 c8 -13 -20 -173 -46 -270 -41
-150 -105 -264 -135 -239 -59 49 21 434 104 500 26 20 67 25 77 9z m775 -1570
c-15 -396 -38 -597 -92 -820 -95 -391 -249 -611 -471 -675 -232 -67 -466 92
-563 382 -103 308 -3 644 278 931 136 140 279 243 594 430 95 56 191 116 215
135 l44 33 3 -65 c2 -36 -2 -194 -8 -351z"/>
<path d="M6800 7585 l0 -155 80 0 80 0 0 -38 c0 -59 -28 -153 -57 -191 -14
-18 -44 -41 -65 -50 l-38 -16 2 -65 c3 -61 4 -65 26 -62 77 11 172 84 212 163
47 91 53 125 57 352 l5 217 -151 0 -151 0 0 -155z"/>
<path d="M2460 5443 c-68 -5 -225 -32 -315 -55 -254 -64 -483 -167 -683 -307
l-72 -52 22 -39 c13 -22 26 -40 29 -40 3 0 26 15 50 33 51 39 191 123 264 160
204 101 577 207 733 207 41 0 42 1 42 34 0 38 -9 67 -19 64 -3 -1 -26 -3 -51
-5z"/>
<path d="M2280 5175 c-237 -38 -495 -176 -712 -384 -537 -513 -774 -1347 -601
-2120 60 -269 163 -511 259 -607 134 -134 314 -93 314 71 0 38 -5 52 -29 76
-32 31 -35 32 -156 30 -130 -3 -147 15 -225 235 -112 315 -136 726 -64 1098
118 609 466 1146 868 1341 117 57 199 78 311 79 265 2 485 -147 625 -423 194
-386 230 -906 104 -1531 -27 -132 -80 -338 -112 -430 l-19 -55 -64 -2 c-153
-6 -361 -54 -503 -117 l-56 -25 0 342 c1 330 4 448 31 960 13 234 13 238 -8
281 -61 125 -204 217 -286 182 -46 -19 -63 -65 -84 -234 -15 -111 -18 -215
-18 -557 0 -446 11 -655 50 -979 l23 -189 -55 -66 c-220 -259 -275 -538 -138
-699 22 -25 63 -54 103 -74 64 -32 71 -33 182 -33 178 1 298 40 474 155 120
78 202 147 304 255 155 164 262 325 362 545 l57 125 92 7 c380 27 646 214 836
588 21 41 80 172 131 290 58 135 97 215 106 214 15 -1 186 -122 231 -163 35
-32 35 -70 3 -199 -177 -698 -179 -1525 -5 -1852 155 -292 357 -183 605 325
99 204 183 402 299 705 47 124 107 279 133 345 l46 120 16 -115 c23 -163 45
-223 118 -333 32 -48 102 -97 137 -97 93 0 225 155 362 425 32 63 61 115 64
115 4 0 9 -33 11 -72 13 -177 102 -301 219 -302 90 -2 172 81 259 259 26 55
59 138 72 185 l23 85 7 -122 c16 -289 76 -511 156 -574 97 -76 248 71 432 423
l66 127 -1 -197 c0 -196 0 -197 28 -254 31 -63 98 -128 132 -128 12 0 29 8 37
18 9 9 46 98 83 197 106 287 211 546 301 744 85 186 127 263 164 296 42 38 44
16 30 -311 -15 -337 -9 -433 31 -553 16 -46 35 -78 70 -114 l48 -50 58 5 c52
5 61 9 93 45 19 22 80 129 135 238 92 182 123 230 140 213 4 -3 26 -74 51
-157 66 -228 122 -340 190 -382 105 -65 212 71 426 541 11 24 18 30 21 20 4
-8 26 -69 50 -135 56 -150 139 -339 229 -519 57 -113 67 -141 56 -151 -7 -6
-48 -40 -91 -75 -92 -73 -177 -172 -215 -250 -22 -45 -27 -69 -27 -131 0 -67
4 -81 30 -124 21 -33 47 -57 85 -79 48 -27 64 -31 130 -30 122 1 226 52 336
162 65 65 129 188 145 277 15 79 5 198 -21 268 l-21 56 52 53 c130 133 292
382 434 668 84 168 102 230 67 230 -17 0 -30 -19 -62 -87 -54 -115 -200 -358
-303 -505 -91 -129 -206 -268 -222 -268 -11 0 -7 -7 -160 265 -138 247 -196
356 -245 464 l-38 84 43 59 c128 174 218 455 185 578 -36 134 -160 203 -276
154 -91 -38 -173 -137 -216 -261 -33 -97 -33 -330 1 -482 l23 -105 -110 -220
c-190 -380 -237 -430 -277 -292 -8 28 -26 123 -40 210 -14 87 -34 178 -44 202
-42 94 -146 110 -218 32 -22 -24 -71 -117 -148 -283 -59 -129 -103 -197 -123
-193 -37 7 -39 99 -11 457 25 323 23 464 -11 534 -60 127 -193 151 -294 52
-68 -66 -263 -469 -427 -884 -29 -74 -54 -130 -56 -124 -2 5 17 112 42 236 25
124 45 243 45 264 0 78 -103 233 -156 233 -49 0 -74 -38 -107 -172 -26 -100
-111 -285 -230 -498 -122 -218 -198 -320 -230 -307 -30 11 -34 147 -12 439 13
176 27 301 67 604 13 98 7 127 -34 180 -22 28 -96 68 -145 79 -42 9 -78 -25
-88 -83 -7 -46 -14 -49 -71 -28 -106 37 -217 26 -305 -30 -92 -57 -179 -214
-230 -411 -50 -196 -269 -621 -358 -696 -18 -15 -37 -27 -42 -27 -58 0 -90 92
-97 276 -2 78 -2 165 2 195 7 54 8 55 62 83 123 65 235 256 234 401 -1 58 -32
120 -72 141 -48 26 -151 25 -203 -3 -104 -54 -199 -220 -231 -398 -8 -48 -60
-183 -182 -475 -278 -665 -508 -1116 -626 -1229 -32 -31 -39 -34 -63 -25 -18
6 -35 24 -48 49 -28 57 -33 297 -11 523 29 286 99 751 157 1031 26 128 25 193
-6 259 -46 99 -159 196 -400 340 -38 23 -83 52 -99 65 l-30 24 63 158 c195
491 236 763 139 909 -37 56 -78 80 -138 80 -62 0 -115 -28 -180 -94 -221 -226
-266 -645 -100 -936 17 -29 52 -79 77 -110 l46 -56 -63 -157 c-76 -190 -164
-374 -220 -461 -136 -211 -292 -336 -495 -399 -76 -24 -285 -42 -285 -24 0 5
16 48 35 95 77 191 146 473 191 778 25 167 28 212 28 460 0 294 -7 359 -60
559 -77 294 -268 531 -529 656 -199 95 -416 126 -645 90z m2286 -683 c15 -76
-56 -392 -152 -679 -37 -111 -46 -133 -53 -133 -4 0 -18 19 -32 43 -22 39 -24
52 -23 177 0 113 4 151 27 235 44 166 108 314 162 370 39 42 62 38 71 -13z
m5475 -683 c40 -97 -26 -356 -133 -521 -40 -61 -41 -62 -51 -38 -5 14 -12 71
-14 127 -7 126 16 264 58 355 49 104 113 140 140 77z m-3051 -374 c39 -47 -69
-524 -160 -710 -120 -247 -198 -130 -140 212 27 158 54 250 106 359 50 106 96
154 148 154 19 0 39 -7 46 -15z m-827 -69 c22 -66 -46 -239 -128 -323 -65 -68
-80 -69 -70 -5 9 58 61 223 87 277 43 86 92 109 111 51z m-3363 -938 c0 -24
-90 -212 -147 -307 -115 -194 -224 -336 -375 -488 -106 -107 -172 -150 -265
-173 -45 -12 -57 -11 -96 4 -51 19 -71 45 -89 110 -22 84 23 267 98 393 l29
48 7 -60 c26 -195 55 -251 137 -262 37 -5 44 -2 74 29 51 55 59 96 58 319 l-1
198 33 25 c53 40 213 111 317 139 135 37 220 47 220 25z m7270 -358 c5 -10 13
-52 16 -93 16 -190 -85 -380 -209 -394 -38 -5 -48 -1 -80 26 -87 77 -61 209
67 336 55 55 170 143 188 144 4 1 12 -8 18 -19z"/>
</g>
</svg>
